# File created by Blade
# Date/Time:  Wed Jan 21 15:55:51 2015
# Frame Rate: 120.000 fps
#------------------------------------------------------
:FULLY-SPECIFIED
:DEGREES
320
root 21.365095 27.712881 -11.572212 -123.636671 22.254854 -176.473427
Spine 63.061938 2.230383 -6.320158
Head -25.502538 5.948670 -9.202358
LeftShoulder 39.856499 -64.977466 -15.193812
LeftArm 36.200820 -0.189505 -58.893686
LeftForeArm -35.558839 -0.000000 13.181717
LeftHand -7.155059 -0.000000 17.117708
LeftHandThumb1 -26.253704 0.000000 33.147579
RightShoulder 14.788543 15.936491 -28.664655
RightArm 43.619167 11.541748 10.998463
RightForeArm -20.203090 -0.000000 31.530477
RightHand -12.094170 -0.000000 -29.527579
RightHandThumb1 -24.326973 -0.000000 -32.862282
LeftUpLeg -61.680363 53.096798 -8.289385
LeftLeg -5.182329 -0.000000 0.000000
LeftFoot -3.073103 33.098144 -11.217635
LeftToeBase 21.987558 -0.000000 -0.000000
RightUpLeg -108.782917 -2.857399 14.327275
RightLeg 72.715966 -0.000000 -0.000000
RightFoot -43.921966 -28.181723 23.176687
RightToeBase 16.846704 -0.000000 -0.000000
321
root 21.340547 27.667489 -11.584110 -123.618841 22.366173 -176.442005
Spine 62.901518 2.343938 -6.286126
Head -25.458210 5.856019 -9.143903
LeftShoulder 39.820849 -64.907310 -15.185954
LeftArm 36.187814 0.006534 -58.946014
LeftForeArm -35.604025 -0.000000 13.084972
LeftHand -7.279422 0.000000 16.630419
LeftHandThumb1 -26.253704 0.000000 33.147579
RightShoulder 14.804072 15.970758 -28.770146
RightArm 43.251197 11.428814 11.043510
RightForeArm -20.113670 -0.000000 31.758038
RightHand -12.319812 -0.000000 -29.903404
RightHandThumb1 -24.326973 -0.000000 -32.862282
LeftUpLeg -61.888264 53.293620 -8.558683
LeftLeg -5.156703 -0.000000 0.000000
LeftFoot -1.701869 33.524057 -10.324622
LeftToeBase 22.218280 -0.000000 -0.000000
RightUpLeg -108.932782 -2.902543 14.469278
RightLeg 72.887541 -0.000000 -0.000000
RightFoot -43.784497 -27.950635 23.150728
RightToeBase 16.573156 -0.000000 -0.000000
322
root 21.320258 27.613239 -11.600253 -123.661651 22.453615 -176.440071
Spine 62.771365 2.439749 -6.208999
Head -25.399619 5.799160 -9.063108
LeftShoulder 39.808432 -64.824545 -15.183314
LeftArm 36.123674 0.114259 -59.079563
LeftForeArm -35.498098 0.000000 13.018292
LeftHand -7.344231 -0.000000 16.200220
LeftHandThumb1 -26.253704 0.000000 33.147579
RightShoulder 14.803837 15.827630 -28.833696
RightArm 42.991115 11.462265 11.018516
RightForeArm -20.029312 -0.000000 31.834280
RightHand -12.282582 -0.000000 -30.254878
RightHandThumb1 -24.326973 -0.000000 -32.862282
LeftUpLeg -61.693925 53.349802 -8.379720
LeftLeg -5.138621 -0.000000 0.000000
LeftFoot -0.095204 33.931065 -9.530061
LeftToeBase 21.906085 -0.000000 -0.000000
RightUpLeg -109.083569 -2.996604 14.641611
RightLeg 73.134172 -0.000000 -0.000000
RightFoot -43.539702 -27.653566 22.829970
RightToeBase 16.802223 -0.000000 -0.000000
323
root 21.305302 27.553095 -11.619100 -123.725501 22.476958 -176.491171
Spine 62.625836 2.458071 -6.089295
Head -25.353063 5.603510 -9.023007
LeftShoulder 39.717675 -64.652737 -15.102768
LeftArm 36.045809 0.195517 -59.195427
LeftForeArm -35.456138 -0.000000 13.093107
LeftHand -7.299769 -0.000000 16.035998
LeftHandThumb1 -26.253704 0.000000 33.147579
RightShoulder 14.856523 15.770987 -28.900395
RightArm 42.645061 11.417863 11.070778
RightForeArm -20.055179 -0.000000 32.052066
RightHand -12.447005 -0.000000 -30.420417
RightHandThumb1 -24.326973 -0.000000 -32.862282
LeftUpLeg -61.650562 53.380816 -8.314392
LeftLeg -5.091717 -0.000000 0.000000
LeftFoot 0.978029 34.035000 -9.239152
LeftToeBase 23.271544 -0.000000 -0.000000
RightUpLeg -109.268686 -3.138357 14.766827
RightLeg 73.462280 -0.000000 -0.000000
RightFoot -43.348810 -27.271084 22.660997
RightToeBase 16.963453 -0.000000 -0.000000
324
root 21.301359 27.485543 -11.637075 -123.830256 22.513223 -176.514348
Spine 62.503751 2.535248 -5.977147
Head -25.275186 5.423825 -8.991210
LeftShoulder 39.654041 -64.425504 -15.053090
LeftArm 35.988807 0.387764 -59.183131
LeftForeArm -35.657993 -0.000000 13.166576
LeftHand -7.310257 -0.000000 15.741511
LeftHandThumb1 -26.253704 0.000000 33.147579
RightShoulder 14.924535 15.736655 -28.914972
RightArm 42.339555 11.405999 11.180623
RightForeArm -20.073699 -0.000000 32.275750
RightHand -12.720287 -0.000000 -30.369507
RightHandThumb1 -24.326973 -0.000000 -32.862282
LeftUpLeg -61.659348 53.539074 -8.341036
LeftLeg -5.188622 -0.000000 0.000000
LeftFoot 1.693317 34.328783 -9.619824
LeftToeBase 25.003394 -0.000000 -0.000000
RightUpLeg -109.395297 -3.218143 14.823484
RightLeg 73.820741 -0.000000 -0.000000
RightFoot -43.181889 -26.981913 22.503809
RightToeBase 16.862416 -0.000000 -0.000000
325
root 21.301337 27.414837 -11.659020 -123.984359 22.511406 -176.552529
Spine 62.444243 2.590953 -5.802986
Head -25.243583 5.255404 -8.914324
LeftShoulder 39.768852 -64.261613 -15.197089
LeftArm 35.899635 0.665713 -59.147353
LeftForeArm -35.887053 0.000000 13.162096
LeftHand -7.312662 -0.000000 15.320146
LeftHandThumb1 -26.253704 0.000000 33.147579
RightShoulder 14.929215 15.572917 -28.901593
RightArm 42.145698 11.398716 11.087182
RightForeArm -20.013615 -0.000000 32.369129
RightHand -12.982124 -0.000000 -30.273758
RightHandThumb1 -24.326973 -0.000000 -32.862282
LeftUpLeg -61.570386 53.684594 -8.269855
LeftLeg -5.323748 -0.000000 0.000000
LeftFoot 2.405149 34.733297 -9.887937
LeftToeBase 26.859528 -0.000000 -0.000000
RightUpLeg -109.486987 -3.325957 14.865712
RightLeg 74.211087 -0.000000 -0.000000
RightFoot -43.135576 -26.730610 22.388660
RightToeBase 17.116731 -0.000000 -0.000000
326
root 21.307753 27.339369 -11.681479 -124.164804 22.508254 -176.629419
Spine 62.377850 2.649885 -5.657257
Head -25.184150 5.216573 -8.893309
LeftShoulder 39.810296 -64.053818 -15.231536
LeftArm 35.821353 0.865101 -59.143932
LeftForeArm -35.923459 -0.000000 13.156630
LeftHand -7.326896 -0.000000 14.825549
LeftHandThumb1 -26.253704 0.000000 33.147579
RightShoulder 14.965344 15.499849 -28.843739
RightArm 41.937018 11.388062 11.133285
RightForeArm -20.105879 -0.000000 32.446322
RightHand -13.281036 0.000000 -29.982571
RightHandThumb1 -24.326973 -0.000000 -32.862282
LeftUpLeg -61.480542 53.828121 -8.215819
LeftLeg -5.359941 -0.000000 0.000000
LeftFoot 2.964654 35.072542 -10.223671
LeftToeBase 28.009610 -0.000000 -0.000000
RightUpLeg -109.585205 -3.454131 14.881180
RightLeg 74.625352 -0.000000 -0.000000
RightFoot -43.101825 -26.620717 22.183700
RightToeBase 17.515839 -0.000000 -0.000000
327
root 21.320999 27.257341 -11.706169 -124.352629 22.512243 -176.736378
Spine 62.272822 2.704005 -5.577301
Head -25.126715 5.068938 -8.759558
LeftShoulder 39.686975 -63.776808 -15.110366
LeftArm 35.809286 1.068133 -59.142155
LeftForeArm -36.058805 -0.000000 13.108480
LeftHand -7.178187 -0.000000 14.357742
LeftHandThumb1 -26.253704 0.000000 33.147579
RightShoulder 15.009879 15.458173 -28.747715
RightArm 41.825896 11.357946 11.262592
RightForeArm -19.858138 -0.000000 32.471401
RightHand -13.664195 -0.000000 -29.710739
RightHandThumb1 -24.326973 -0.000000 -32.862282
LeftUpLeg -61.423167 54.012729 -8.253079
LeftLeg -5.368742 -0.000000 0.000000
LeftFoot 3.163644 35.301938 -11.216782
LeftToeBase 29.208117 -0.000000 -0.000000
RightUpLeg -109.718911 -3.579109 14.845995
RightLeg 75.106287 -0.000000 -0.000000
RightFoot -43.096225 -26.516127 22.090426
RightToeBase 17.545423 -0.000000 -0.000000
328
root 21.341621 27.176792 -11.728394 -124.541254 22.495266 -176.859047
Spine 62.165158 2.757861 -5.494723
Head -25.058372 4.921833 -8.620695
LeftShoulder 39.613689 -63.494270 -15.022426
LeftArm 35.803165 1.212785 -59.131205
LeftForeArm -36.026803 -0.000000 13.035266
LeftHand -7.150215 0.000000 13.866762
LeftHandThumb1 -26.253704 0.000000 33.147579
RightShoulder 15.050093 15.479552 -28.622370
RightArm 41.740421 11.299482 11.478953
RightForeArm -19.595516 -0.000000 32.362861
RightHand -13.685128 -0.000000 -29.688625
RightHandThumb1 -24.326973 -0.000000 -32.862282
LeftUpLeg -61.618248 54.269813 -8.565106
LeftLeg -5.307387 -0.000000 0.000000
LeftFoot 3.269350 35.293805 -12.215126
LeftToeBase 30.379818 -0.000000 -0.000000
RightUpLeg -109.848914 -3.681541 14.756312
RightLeg 75.574031 -0.000000 -0.000000
RightFoot -43.088371 -26.526655 21.963027
RightToeBase 17.566654 -0.000000 -0.000000
329
root 21.366126 27.094635 -11.751231 -124.739278 22.457268 -177.063485
Spine 62.038770 2.794368 -5.413021
Head -25.016007 4.800922 -8.418843
LeftShoulder 39.723469 -63.250311 -15.079509
LeftArm 35.730125 1.444596 -59.088017
LeftForeArm -36.139051 -0.000000 12.980094
LeftHand -7.097210 -0.000000 13.470412
LeftHandThumb1 -26.253704 0.000000 33.147579
RightShoulder 15.091784 15.533524 -28.443743
RightArm 41.567806 11.313979 11.791815
RightForeArm -19.072869 -0.000000 32.389661
RightHand -13.843024 0.000000 -29.070737
RightHandThumb1 -24.326973 -0.000000 -32.862282
LeftUpLeg -61.898208 54.494683 -9.027772
LeftLeg -5.242606 -0.000000 0.000000
LeftFoot 3.290839 35.070707 -13.253856
LeftToeBase 31.541404 -0.000000 -0.000000
RightUpLeg -110.043120 -3.847449 14.668881
RightLeg 76.090987 -0.000000 -0.000000
RightFoot -43.132203 -26.519019 21.809866
RightToeBase 17.948148 -0.000000 -0.000000
